<svg width="12" height="12" viewBox="0 0 12 12" fill="none" xmlns="http://www.w3.org/2000/svg">
<g id="fi-sr-check">
<path id="Vector" d="M0.756567 7.74326L2.83957 9.82626C3.12086 10.1075 3.50232 10.2654 3.90007 10.2654C4.29781 10.2654 4.67928 10.1075 4.96057 9.82626L11.3936 3.39325C11.4846 3.29895 11.535 3.17265 11.5339 3.04155C11.5328 2.91046 11.4802 2.78505 11.3875 2.69234C11.2948 2.59964 11.1694 2.54706 11.0383 2.54592C10.9072 2.54478 10.7809 2.59518 10.6866 2.68625L4.25357 9.11926C4.1598 9.21299 4.03265 9.26565 3.90007 9.26565C3.76748 9.26565 3.64033 9.21299 3.54657 9.11926L1.46357 7.03625C1.36927 6.94518 1.24296 6.89478 1.11187 6.89592C0.980768 6.89706 0.855362 6.94964 0.762658 7.04235C0.669954 7.13505 0.617369 7.26046 0.61623 7.39155C0.615091 7.52265 0.665488 7.64895 0.756567 7.74326Z" fill="white"/>
</g>
</svg>
